<svg xmlns="http://www.w3.org/2000/svg" xmlns:xlink="http://www.w3.org/1999/xlink" width="500" zoomAndPan="magnify" viewBox="0 0 375 374.999991" height="500" preserveAspectRatio="xMidYMid meet" version="1.2"><defs><clipPath id="c2b8222852"><path d="M 30.050781 0 L 345 0 L 345 374.25 L 30.050781 374.25 Z M 30.050781 0 "/></clipPath></defs><g id="1f577f89b7"><g clip-rule="nonzero" clip-path="url(#c2b8222852)"><path style=" stroke:none;fill-rule:evenodd;fill:#6366f1;fill-opacity:1;" d="M 62.453125 91.160156 L 185.859375 91.160156 C 185.761719 90.765625 185.761719 90.375 185.761719 89.988281 L 185.761719 89.789062 L 110.457031 49.171875 C 108.59375 52.695312 104.859375 55.046875 100.542969 55.046875 C 99.167969 55.046875 97.890625 54.847656 96.710938 54.453125 L 61.175781 87.4375 C 61.765625 88.519531 62.253906 89.789062 62.453125 91.160156 Z M 141.085938 348.957031 C 147.273438 348.957031 152.378906 354.046875 152.378906 360.21875 L 207.949219 360.21875 C 207.949219 359.824219 207.847656 359.433594 207.847656 358.945312 C 207.847656 354.925781 209.417969 351.3125 211.972656 348.570312 L 190.371094 307.070312 L 60.488281 331.144531 C 60.292969 339.273438 53.519531 345.824219 45.269531 345.824219 C 45.074219 345.824219 44.875 345.824219 44.582031 345.824219 L 44.582031 360.21875 L 129.800781 360.21875 C 129.800781 354.046875 134.804688 348.957031 141.085938 348.957031 Z M 151.105469 365.402344 C 149.234375 369.023438 145.40625 371.472656 141.085938 371.472656 C 136.671875 371.472656 132.9375 369.023438 130.976562 365.402344 L 42.03125 365.402344 C 40.65625 365.402344 39.476562 364.230469 39.476562 362.859375 L 39.476562 344.753906 C 33.980469 342.40625 30.050781 337.019531 30.050781 330.65625 C 30.050781 322.339844 36.925781 315.484375 45.269531 315.484375 C 46.742188 315.484375 48.117188 315.679688 49.394531 316.074219 L 122.140625 205.28125 C 121.75 204.203125 121.550781 203.027344 121.550781 201.761719 C 121.550781 195.984375 126.066406 191.089844 131.761719 190.601562 L 191.449219 99.773438 C 189.980469 98.894531 188.703125 97.71875 187.722656 96.25 L 62.15625 96.25 C 60.683594 100.847656 56.464844 104.273438 51.355469 104.273438 C 45.074219 104.273438 40.066406 99.1875 40.066406 93.019531 C 40.066406 87.929688 43.40625 83.625 47.921875 82.253906 L 47.921875 22.355469 C 43.011719 21.175781 39.28125 16.777344 39.28125 11.390625 C 39.28125 5.226562 44.289062 0.136719 50.570312 0.136719 C 56.757812 0.136719 61.863281 5.226562 61.863281 11.390625 L 127.539062 11.390625 C 129.402344 7.769531 133.136719 5.324219 137.550781 5.324219 C 141.875 5.324219 145.699219 7.769531 147.570312 11.390625 L 218.644531 11.390625 C 220.710938 8.847656 223.847656 7.183594 227.484375 7.183594 C 231.019531 7.183594 234.15625 8.847656 236.222656 11.390625 L 322.609375 11.390625 C 323.691406 6.402344 328.210938 2.679688 333.609375 2.679688 C 339.792969 2.679688 344.898438 7.769531 344.898438 13.9375 C 344.898438 20.203125 339.792969 25.195312 333.609375 25.195312 L 333.609375 41.925781 C 333.507812 42.320312 333.414062 42.808594 333.121094 43.296875 L 310.835938 77.652344 C 311.425781 79.023438 311.8125 80.589844 311.8125 82.152344 C 311.8125 88.320312 306.808594 93.3125 300.621094 93.410156 L 215.3125 224.953125 C 215.601562 225.929688 215.699219 227.011719 215.699219 228.082031 C 215.699219 233.859375 211.480469 238.558594 205.980469 239.242188 L 184.675781 272.03125 C 185.464844 272.910156 185.953125 273.890625 186.445312 275.0625 L 322.417969 275.0625 C 323.984375 270.859375 328.109375 267.921875 332.917969 267.921875 C 339.109375 267.921875 344.113281 273.011719 344.113281 279.175781 C 344.113281 283.675781 341.464844 287.691406 337.535156 289.449219 L 337.535156 348.46875 C 341.167969 350.332031 343.722656 354.148438 343.722656 358.546875 C 343.722656 364.71875 338.613281 369.808594 332.429688 369.808594 C 328.800781 369.808594 325.5625 368.042969 323.496094 365.402344 L 236.90625 365.402344 C 234.453125 370.585938 229.152344 374.113281 223.0625 374.113281 C 216.976562 374.113281 211.777344 370.585938 209.324219 365.402344 Z M 204.414062 216.828125 C 205.390625 216.828125 206.277344 217.023438 207.164062 217.21875 L 202.050781 160.648438 C 201.664062 160.75 201.367188 160.75 200.972656 160.75 C 199.015625 160.75 197.144531 160.257812 195.574219 159.378906 L 142.167969 195.496094 C 143.445312 197.253906 144.132812 199.507812 144.132812 201.761719 C 144.132812 202.933594 143.9375 204.007812 143.644531 204.984375 L 196.265625 220.351562 C 198.324219 218.199219 201.171875 216.828125 204.414062 216.828125 Z M 200.289062 238.558594 C 199.699219 238.363281 199.109375 238.070312 198.617188 237.773438 L 59.113281 324.390625 C 59.40625 324.878906 59.601562 325.472656 59.800781 326.054688 L 187.921875 302.273438 L 181.046875 288.960938 C 179.476562 289.746094 177.707031 290.234375 175.839844 290.234375 C 169.558594 290.234375 164.554688 285.144531 164.554688 278.980469 C 164.554688 272.714844 169.5625 267.726562 175.839844 267.726562 C 177.511719 267.726562 179.179688 268.113281 180.652344 268.800781 Z M 194.890625 234.054688 C 193.808594 232.296875 193.117188 230.335938 193.117188 228.085938 C 193.117188 227.011719 193.320312 225.929688 193.609375 224.953125 L 141.085938 209.585938 C 139.027344 211.738281 136.078125 213.015625 132.839844 213.015625 C 129.898438 213.015625 127.148438 211.933594 125.183594 210.078125 L 54.105469 318.320312 C 54.792969 318.8125 55.578125 319.402344 56.167969 320.085938 Z M 57.246094 20.492188 C 55.96875 21.375 54.597656 21.960938 53.121094 22.355469 L 53.121094 81.859375 C 54.792969 82.15625 56.265625 82.746094 57.640625 83.625 L 92.296875 51.519531 C 90.433594 49.464844 89.25 46.824219 89.25 43.886719 C 89.25 41.929688 89.742188 40.070312 90.628906 38.503906 Z M 148.84375 16.578125 C 148.84375 22.746094 143.738281 27.835938 137.550781 27.835938 C 134.3125 27.835938 131.367188 26.460938 129.304688 24.214844 L 111.441406 40.753906 C 111.636719 41.734375 111.832031 42.808594 111.832031 43.886719 L 111.832031 44.082031 L 187.132812 84.699219 C 189.097656 81.175781 192.824219 78.726562 197.050781 78.726562 C 198.324219 78.726562 199.597656 79.023438 200.777344 79.414062 L 219.335938 26.171875 C 217.371094 24.214844 216.191406 21.472656 216.191406 18.441406 C 216.191406 17.753906 216.191406 17.167969 216.289062 16.582031 L 148.84375 16.582031 Z M 126.65625 19.613281 C 126.363281 18.636719 126.265625 17.65625 126.265625 16.582031 L 60.683594 16.582031 L 94.160156 34.589844 C 95.929688 33.316406 98.183594 32.632812 100.542969 32.632812 C 103.78125 32.632812 106.730469 34 108.789062 36.152344 Z M 205.199219 82.253906 C 207.164062 84.210938 208.335938 86.949219 208.335938 89.988281 C 208.335938 94.585938 205.585938 98.496094 201.664062 100.261719 L 205.199219 139.019531 C 207.355469 139.898438 209.121094 141.367188 210.402344 143.128906 L 291.199219 88.417969 C 289.921875 86.65625 289.230469 84.5 289.230469 82.152344 C 289.230469 79.316406 290.21875 76.675781 291.980469 74.714844 L 235.925781 25.777344 C 233.863281 28.128906 230.816406 29.695312 227.484375 29.695312 C 226.109375 29.695312 224.929688 29.398438 223.75 29.011719 Z M 238.578125 16.578125 C 238.675781 17.167969 238.769531 17.753906 238.769531 18.441406 C 238.769531 19.320312 238.578125 20.296875 238.382812 21.175781 L 296.300781 71.683594 C 297.582031 71.195312 299.050781 70.898438 300.527344 70.898438 C 303.175781 70.898438 305.628906 71.777344 307.492188 73.347656 L 328.40625 41.144531 L 328.40625 24.015625 C 325.460938 22.453125 323.300781 19.808594 322.609375 16.578125 Z M 295.320312 92.140625 L 295.027344 92.039062 L 212.167969 148.121094 C 212.265625 148.511719 212.265625 149.003906 212.265625 149.492188 C 212.265625 153.507812 210.199219 157.027344 207.0625 158.984375 L 212.5625 219.667969 Z M 191.648438 155.753906 C 190.46875 153.996094 189.6875 151.84375 189.6875 149.492188 C 189.6875 143.621094 194.199219 138.824219 199.992188 138.234375 L 196.652344 101.242188 L 137.359375 191.476562 C 137.652344 191.578125 137.949219 191.773438 138.242188 191.96875 Z M 185.5625 284.65625 C 185.363281 284.949219 185.171875 285.246094 184.972656 285.539062 L 193.21875 301.292969 L 206.765625 298.753906 C 206.960938 298.066406 207.257812 297.28125 207.652344 296.597656 Z M 321.234375 360.21875 C 321.144531 359.730469 321.144531 359.136719 321.144531 358.546875 L 321.144531 358.261719 L 269.601562 330.265625 L 237.589844 354.445312 C 238.085938 355.8125 238.28125 357.375 238.28125 358.945312 C 238.28125 359.433594 238.28125 359.824219 238.28125 360.21875 Z M 322.515625 353.171875 C 324.382812 349.640625 328.109375 347.296875 332.429688 347.296875 L 332.429688 290.429688 C 329.882812 290.335938 327.519531 289.355469 325.65625 287.886719 L 274.113281 326.839844 Z M 322.609375 283.777344 C 322.417969 283.386719 322.222656 282.992188 322.121094 282.601562 L 228.65625 299.925781 C 228.757812 300.609375 228.859375 301.292969 228.859375 301.976562 L 228.859375 302.273438 L 269.105469 324.195312 Z M 217.566406 290.722656 C 221.199219 290.722656 224.4375 292.488281 226.5 295.128906 L 307.003906 280.15625 L 188.113281 280.15625 L 211.1875 292.683594 C 212.949219 291.507812 215.210938 290.722656 217.566406 290.722656 Z M 227.484375 307.363281 C 225.519531 310.882812 221.789062 313.238281 217.566406 313.238281 C 212.066406 313.238281 207.449219 309.320312 206.472656 304.035156 L 195.675781 306.089844 L 216.097656 345.4375 C 218.257812 344.355469 220.609375 343.773438 223.0625 343.773438 C 228.074219 343.773438 232.488281 346.121094 235.238281 349.742188 L 264.589844 327.523438 Z M 227.484375 307.363281 "/></g><g style="fill:#cccccc;fill-opacity:1;"><g transform="translate(0.0000045, 374.085481)"><path style="stroke:none" d="M 0.3125 0.015625 C 0.257812 0.015625 0.210938 0.00390625 0.171875 -0.015625 C 0.140625 -0.046875 0.113281 -0.0820312 0.09375 -0.125 C 0.0703125 -0.164062 0.0625 -0.210938 0.0625 -0.265625 C 0.0625 -0.328125 0.0703125 -0.378906 0.09375 -0.421875 C 0.113281 -0.460938 0.140625 -0.492188 0.171875 -0.515625 C 0.210938 -0.535156 0.257812 -0.546875 0.3125 -0.546875 C 0.363281 -0.546875 0.40625 -0.535156 0.4375 -0.515625 C 0.476562 -0.492188 0.503906 -0.46875 0.515625 -0.4375 L 0.46875 -0.390625 L 0.453125 -0.390625 C 0.441406 -0.421875 0.421875 -0.441406 0.390625 -0.453125 C 0.367188 -0.472656 0.34375 -0.484375 0.3125 -0.484375 C 0.28125 -0.484375 0.25 -0.472656 0.21875 -0.453125 C 0.195312 -0.441406 0.175781 -0.421875 0.15625 -0.390625 C 0.144531 -0.359375 0.140625 -0.316406 0.140625 -0.265625 C 0.140625 -0.222656 0.144531 -0.1875 0.15625 -0.15625 C 0.175781 -0.125 0.195312 -0.0976562 0.21875 -0.078125 C 0.25 -0.0664062 0.28125 -0.0625 0.3125 -0.0625 C 0.34375 -0.0625 0.367188 -0.0664062 0.390625 -0.078125 C 0.421875 -0.0976562 0.441406 -0.128906 0.453125 -0.171875 L 0.46875 -0.171875 L 0.515625 -0.140625 C 0.503906 -0.0859375 0.476562 -0.046875 0.4375 -0.015625 C 0.40625 0.00390625 0.363281 0.015625 0.3125 0.015625 Z M 0.3125 0.015625 "/></g><g transform="translate(0.555179, 374.085481)"><path style="stroke:none" d="M 0.3125 0.015625 C 0.257812 0.015625 0.210938 0.00390625 0.171875 -0.015625 C 0.140625 -0.0351562 0.113281 -0.0664062 0.09375 -0.109375 C 0.0703125 -0.160156 0.0625 -0.210938 0.0625 -0.265625 C 0.0625 -0.328125 0.0703125 -0.378906 0.09375 -0.421875 C 0.113281 -0.460938 0.140625 -0.492188 0.171875 -0.515625 C 0.210938 -0.535156 0.257812 -0.546875 0.3125 -0.546875 C 0.363281 -0.546875 0.40625 -0.535156 0.4375 -0.515625 C 0.476562 -0.492188 0.507812 -0.460938 0.53125 -0.421875 C 0.550781 -0.378906 0.5625 -0.328125 0.5625 -0.265625 C 0.5625 -0.210938 0.550781 -0.160156 0.53125 -0.109375 C 0.507812 -0.0664062 0.476562 -0.0351562 0.4375 -0.015625 C 0.40625 0.00390625 0.363281 0.015625 0.3125 0.015625 Z M 0.3125 -0.0625 C 0.363281 -0.0625 0.398438 -0.078125 0.421875 -0.109375 C 0.453125 -0.140625 0.46875 -0.191406 0.46875 -0.265625 C 0.46875 -0.335938 0.453125 -0.390625 0.421875 -0.421875 C 0.398438 -0.460938 0.363281 -0.484375 0.3125 -0.484375 C 0.257812 -0.484375 0.21875 -0.460938 0.1875 -0.421875 C 0.15625 -0.390625 0.140625 -0.335938 0.140625 -0.265625 C 0.140625 -0.191406 0.15625 -0.140625 0.1875 -0.109375 C 0.21875 -0.078125 0.257812 -0.0625 0.3125 -0.0625 Z M 0.3125 -0.0625 "/></g><g transform="translate(1.173341, 374.085481)"><path style="stroke:none" d="M 0.28125 0.015625 C 0.238281 0.015625 0.195312 0.00390625 0.15625 -0.015625 C 0.125 -0.0351562 0.0976562 -0.0664062 0.078125 -0.109375 C 0.0664062 -0.148438 0.0625 -0.203125 0.0625 -0.265625 C 0.0625 -0.328125 0.0703125 -0.378906 0.09375 -0.421875 C 0.113281 -0.460938 0.140625 -0.492188 0.171875 -0.515625 C 0.203125 -0.535156 0.238281 -0.546875 0.28125 -0.546875 C 0.320312 -0.546875 0.351562 -0.539062 0.375 -0.53125 C 0.40625 -0.519531 0.429688 -0.5 0.453125 -0.46875 L 0.46875 -0.46875 L 0.46875 -0.75 L 0.546875 -0.75 L 0.546875 0 L 0.46875 0 L 0.46875 -0.078125 L 0.453125 -0.078125 C 0.441406 -0.0546875 0.421875 -0.0351562 0.390625 -0.015625 C 0.359375 0.00390625 0.320312 0.015625 0.28125 0.015625 Z M 0.296875 -0.0625 C 0.347656 -0.0625 0.390625 -0.078125 0.421875 -0.109375 C 0.453125 -0.148438 0.46875 -0.203125 0.46875 -0.265625 C 0.46875 -0.335938 0.453125 -0.390625 0.421875 -0.421875 C 0.390625 -0.460938 0.347656 -0.484375 0.296875 -0.484375 C 0.253906 -0.484375 0.21875 -0.460938 0.1875 -0.421875 C 0.15625 -0.390625 0.140625 -0.335938 0.140625 -0.265625 C 0.140625 -0.128906 0.191406 -0.0625 0.296875 -0.0625 Z M 0.296875 -0.0625 "/></g><g transform="translate(1.816406, 374.085481)"><path style="stroke:none" d="M 0.515625 -0.25 L 0.140625 -0.25 C 0.140625 -0.1875 0.15625 -0.140625 0.1875 -0.109375 C 0.21875 -0.078125 0.257812 -0.0625 0.3125 -0.0625 C 0.351562 -0.0625 0.382812 -0.0664062 0.40625 -0.078125 C 0.425781 -0.0976562 0.441406 -0.117188 0.453125 -0.140625 L 0.46875 -0.140625 L 0.515625 -0.109375 C 0.503906 -0.078125 0.476562 -0.046875 0.4375 -0.015625 C 0.40625 0.00390625 0.363281 0.015625 0.3125 0.015625 C 0.257812 0.015625 0.210938 0.00390625 0.171875 -0.015625 C 0.140625 -0.0351562 0.113281 -0.0664062 0.09375 -0.109375 C 0.0703125 -0.148438 0.0625 -0.203125 0.0625 -0.265625 C 0.0625 -0.328125 0.0703125 -0.378906 0.09375 -0.421875 C 0.113281 -0.460938 0.140625 -0.492188 0.171875 -0.515625 C 0.210938 -0.535156 0.257812 -0.546875 0.3125 -0.546875 C 0.375 -0.546875 0.425781 -0.523438 0.46875 -0.484375 C 0.507812 -0.453125 0.53125 -0.394531 0.53125 -0.3125 C 0.53125 -0.28125 0.53125 -0.257812 0.53125 -0.25 Z M 0.453125 -0.3125 C 0.441406 -0.375 0.425781 -0.414062 0.40625 -0.4375 C 0.382812 -0.46875 0.351562 -0.484375 0.3125 -0.484375 C 0.257812 -0.484375 0.21875 -0.46875 0.1875 -0.4375 C 0.164062 -0.414062 0.148438 -0.375 0.140625 -0.3125 Z M 0.453125 -0.3125 "/></g><g transform="translate(2.390623, 374.085481)"><path style="stroke:none" d=""/></g><g transform="translate(2.63574, 374.085481)"><path style="stroke:none" d="M 0.21875 0.015625 C 0.175781 0.015625 0.144531 0.00390625 0.125 -0.015625 C 0.101562 -0.046875 0.09375 -0.0820312 0.09375 -0.125 L 0.09375 -0.75 L 0.171875 -0.75 L 0.171875 -0.125 C 0.171875 -0.101562 0.175781 -0.0859375 0.1875 -0.078125 C 0.195312 -0.0664062 0.207031 -0.0625 0.21875 -0.0625 C 0.226562 -0.0625 0.242188 -0.0625 0.265625 -0.0625 L 0.28125 0 C 0.269531 0 0.257812 0 0.25 0 C 0.238281 0.0078125 0.226562 0.015625 0.21875 0.015625 Z M 0.21875 0.015625 "/></g><g transform="translate(2.928708, 374.085481)"><path style="stroke:none" d="M 0.515625 -0.25 L 0.140625 -0.25 C 0.140625 -0.1875 0.15625 -0.140625 0.1875 -0.109375 C 0.21875 -0.078125 0.257812 -0.0625 0.3125 -0.0625 C 0.351562 -0.0625 0.382812 -0.0664062 0.40625 -0.078125 C 0.425781 -0.0976562 0.441406 -0.117188 0.453125 -0.140625 L 0.46875 -0.140625 L 0.515625 -0.109375 C 0.503906 -0.078125 0.476562 -0.046875 0.4375 -0.015625 C 0.40625 0.00390625 0.363281 0.015625 0.3125 0.015625 C 0.257812 0.015625 0.210938 0.00390625 0.171875 -0.015625 C 0.140625 -0.0351562 0.113281 -0.0664062 0.09375 -0.109375 C 0.0703125 -0.148438 0.0625 -0.203125 0.0625 -0.265625 C 0.0625 -0.328125 0.0703125 -0.378906 0.09375 -0.421875 C 0.113281 -0.460938 0.140625 -0.492188 0.171875 -0.515625 C 0.210938 -0.535156 0.257812 -0.546875 0.3125 -0.546875 C 0.375 -0.546875 0.425781 -0.523438 0.46875 -0.484375 C 0.507812 -0.453125 0.53125 -0.394531 0.53125 -0.3125 C 0.53125 -0.28125 0.53125 -0.257812 0.53125 -0.25 Z M 0.453125 -0.3125 C 0.441406 -0.375 0.425781 -0.414062 0.40625 -0.4375 C 0.382812 -0.46875 0.351562 -0.484375 0.3125 -0.484375 C 0.257812 -0.484375 0.21875 -0.46875 0.1875 -0.4375 C 0.164062 -0.414062 0.148438 -0.375 0.140625 -0.3125 Z M 0.453125 -0.3125 "/></g><g transform="translate(3.502925, 374.085481)"><path style="stroke:none" d="M 0.359375 -0.078125 L 0.390625 -0.03125 C 0.378906 -0.0195312 0.363281 -0.0078125 0.34375 0 C 0.320312 0.0078125 0.296875 0.015625 0.265625 0.015625 C 0.171875 0.015625 0.125 -0.0351562 0.125 -0.140625 L 0.125 -0.46875 L 0.03125 -0.46875 L 0.03125 -0.546875 L 0.125 -0.546875 L 0.125 -0.65625 L 0.203125 -0.671875 L 0.203125 -0.546875 L 0.375 -0.546875 L 0.375 -0.46875 L 0.203125 -0.46875 L 0.203125 -0.15625 C 0.203125 -0.09375 0.226562 -0.0625 0.28125 -0.0625 C 0.3125 -0.0625 0.335938 -0.0664062 0.359375 -0.078125 Z M 0.359375 -0.078125 "/></g><g transform="translate(3.913081, 374.085481)"><path style="stroke:none" d="M 0.359375 -0.078125 L 0.390625 -0.03125 C 0.378906 -0.0195312 0.363281 -0.0078125 0.34375 0 C 0.320312 0.0078125 0.296875 0.015625 0.265625 0.015625 C 0.171875 0.015625 0.125 -0.0351562 0.125 -0.140625 L 0.125 -0.46875 L 0.03125 -0.46875 L 0.03125 -0.546875 L 0.125 -0.546875 L 0.125 -0.65625 L 0.203125 -0.671875 L 0.203125 -0.546875 L 0.375 -0.546875 L 0.375 -0.46875 L 0.203125 -0.46875 L 0.203125 -0.15625 C 0.203125 -0.09375 0.226562 -0.0625 0.28125 -0.0625 C 0.3125 -0.0625 0.335938 -0.0664062 0.359375 -0.078125 Z M 0.359375 -0.078125 "/></g></g><g style="fill:#cccccc;fill-opacity:1;"><g transform="translate(4.316888, 374.085481)"><path style="stroke:none" d="M 0.515625 -0.25 L 0.140625 -0.25 C 0.140625 -0.1875 0.15625 -0.140625 0.1875 -0.109375 C 0.21875 -0.078125 0.257812 -0.0625 0.3125 -0.0625 C 0.351562 -0.0625 0.382812 -0.0664062 0.40625 -0.078125 C 0.425781 -0.0976562 0.441406 -0.117188 0.453125 -0.140625 L 0.46875 -0.140625 L 0.515625 -0.109375 C 0.503906 -0.078125 0.476562 -0.046875 0.4375 -0.015625 C 0.40625 0.00390625 0.363281 0.015625 0.3125 0.015625 C 0.257812 0.015625 0.210938 0.00390625 0.171875 -0.015625 C 0.140625 -0.0351562 0.113281 -0.0664062 0.09375 -0.109375 C 0.0703125 -0.148438 0.0625 -0.203125 0.0625 -0.265625 C 0.0625 -0.328125 0.0703125 -0.378906 0.09375 -0.421875 C 0.113281 -0.460938 0.140625 -0.492188 0.171875 -0.515625 C 0.210938 -0.535156 0.257812 -0.546875 0.3125 -0.546875 C 0.375 -0.546875 0.425781 -0.523438 0.46875 -0.484375 C 0.507812 -0.453125 0.53125 -0.394531 0.53125 -0.3125 C 0.53125 -0.28125 0.53125 -0.257812 0.53125 -0.25 Z M 0.453125 -0.3125 C 0.441406 -0.375 0.425781 -0.414062 0.40625 -0.4375 C 0.382812 -0.46875 0.351562 -0.484375 0.3125 -0.484375 C 0.257812 -0.484375 0.21875 -0.46875 0.1875 -0.4375 C 0.164062 -0.414062 0.148438 -0.375 0.140625 -0.3125 Z M 0.453125 -0.3125 "/></g><g transform="translate(4.891105, 374.085481)"><path style="stroke:none" d="M 0.09375 0 L 0.09375 -0.53125 L 0.171875 -0.53125 L 0.171875 -0.453125 L 0.1875 -0.453125 C 0.207031 -0.515625 0.253906 -0.546875 0.328125 -0.546875 C 0.359375 -0.546875 0.382812 -0.539062 0.40625 -0.53125 L 0.390625 -0.453125 L 0.375 -0.453125 C 0.351562 -0.460938 0.332031 -0.46875 0.3125 -0.46875 C 0.269531 -0.46875 0.234375 -0.453125 0.203125 -0.421875 C 0.179688 -0.390625 0.171875 -0.335938 0.171875 -0.265625 L 0.171875 0 Z M 0.09375 0 "/></g><g transform="translate(5.30712, 374.085481)"><path style="stroke:none" d="M 0.25 0.015625 C 0.207031 0.015625 0.171875 0.0078125 0.140625 0 C 0.117188 -0.0078125 0.0976562 -0.0195312 0.078125 -0.03125 C 0.0546875 -0.0507812 0.0390625 -0.0703125 0.03125 -0.09375 L 0.078125 -0.140625 L 0.09375 -0.140625 C 0.113281 -0.117188 0.132812 -0.0976562 0.15625 -0.078125 C 0.175781 -0.0664062 0.207031 -0.0625 0.25 -0.0625 C 0.289062 -0.0625 0.320312 -0.0664062 0.34375 -0.078125 C 0.363281 -0.0976562 0.375 -0.125 0.375 -0.15625 C 0.375 -0.175781 0.363281 -0.191406 0.34375 -0.203125 C 0.332031 -0.210938 0.3125 -0.222656 0.28125 -0.234375 L 0.203125 -0.25 C 0.148438 -0.257812 0.113281 -0.273438 0.09375 -0.296875 C 0.0703125 -0.328125 0.0625 -0.363281 0.0625 -0.40625 C 0.0625 -0.4375 0.0664062 -0.460938 0.078125 -0.484375 C 0.0976562 -0.503906 0.117188 -0.519531 0.140625 -0.53125 C 0.171875 -0.539062 0.207031 -0.546875 0.25 -0.546875 C 0.289062 -0.546875 0.328125 -0.535156 0.359375 -0.515625 C 0.390625 -0.503906 0.410156 -0.488281 0.421875 -0.46875 L 0.390625 -0.421875 L 0.375 -0.421875 C 0.351562 -0.441406 0.332031 -0.457031 0.3125 -0.46875 C 0.289062 -0.476562 0.269531 -0.484375 0.25 -0.484375 C 0.207031 -0.484375 0.175781 -0.472656 0.15625 -0.453125 C 0.144531 -0.441406 0.140625 -0.425781 0.140625 -0.40625 C 0.140625 -0.382812 0.144531 -0.363281 0.15625 -0.34375 C 0.164062 -0.332031 0.1875 -0.328125 0.21875 -0.328125 L 0.3125 -0.296875 C 0.363281 -0.285156 0.398438 -0.265625 0.421875 -0.234375 C 0.441406 -0.210938 0.453125 -0.1875 0.453125 -0.15625 C 0.453125 -0.125 0.441406 -0.09375 0.421875 -0.0625 C 0.410156 -0.0390625 0.390625 -0.0195312 0.359375 0 C 0.328125 0.0078125 0.289062 0.015625 0.25 0.015625 Z M 0.25 0.015625 "/></g></g></g></svg>